<svg width="84" height="104" viewBox="0 0 84 104" fill="none" xmlns="http://www.w3.org/2000/svg">
<rect width="83.2438" height="104" fill="black"/>
<path d="M20.501 70.4906C20.1166 69.0543 19.7027 67.743 19.2593 66.5567H14.0837L12.6226 70.4906H12L16.1391 59.5239L17.3808 56.0039H17.7947C18.8725 58.9968 19.6248 61.0663 20.0517 62.2125C20.4786 63.3587 20.9066 64.4318 21.3359 65.4317C21.7627 66.4341 22.5139 68.1215 23.5894 70.4941L20.501 70.4906ZM19.0859 66.1428C18.7534 65.2726 18.2699 64.1759 17.6355 62.8528C17.1945 61.9542 16.8088 61.1123 16.4787 60.3269L14.2853 66.1428H19.0859Z" fill="white"/>
<path d="M34.5561 66.6372C34.7395 67.5695 34.8331 68.5172 34.8356 69.4674C34.8356 69.7433 34.8356 69.9697 34.8143 70.1501C34.7931 70.3305 34.7931 70.4473 34.7931 70.5039H31.8958C31.9463 70.182 31.9735 69.8569 31.9771 69.531C31.969 68.6561 31.8682 67.7845 31.6764 66.9309C31.5346 66.1486 31.2581 65.3969 30.8592 64.7092C30.5447 64.2249 30.1499 63.7978 29.6918 63.4463C29.2676 63.0768 28.7293 62.8645 28.1671 62.8449H27.548C27.548 65.0099 27.5692 66.4792 27.6117 67.2528C27.6541 68.0264 27.772 69.1101 27.9654 70.5039H24.8594C24.9584 68.9025 25.0351 67.5016 25.0893 66.3012C25.1436 65.1007 25.1707 64.0866 25.1707 63.2588C25.1707 62.431 25.1436 61.4168 25.0893 60.2164C25.0327 59.0136 24.9584 57.6162 24.8594 56.0137H30.8734C31.3571 56.0453 31.8337 56.1465 32.2884 56.3144C32.939 56.5304 33.531 56.8936 34.0184 57.3757C34.2915 57.659 34.5031 57.9956 34.6401 58.3645C34.777 58.7334 34.8364 59.1266 34.8143 59.5195C34.8143 60.5808 34.4606 61.3591 33.7884 61.8473C33.1469 62.3179 32.4085 62.6394 31.6269 62.7883C31.9935 62.9479 32.3401 63.1497 32.6599 63.3897C33.0068 63.6384 33.3144 63.9377 33.5726 64.2776C34.0794 64.977 34.4162 65.7849 34.5561 66.6372ZM29.5043 62.4345C29.874 62.45 30.243 62.3909 30.5895 62.2609C30.9359 62.1308 31.2526 61.9324 31.5208 61.6774C31.7917 61.3941 32.0007 61.0575 32.1347 60.6891C32.2687 60.3206 32.3246 59.9284 32.2991 59.5372C32.2991 58.5006 32.016 57.7294 31.45 57.2165C30.9028 56.7138 30.1836 56.4403 29.4406 56.4523C28.9168 56.4378 28.3999 56.5741 27.9513 56.845C27.7809 57.6621 27.6628 58.4893 27.5975 59.3214C27.548 60.0478 27.5232 60.9487 27.5232 62.0241C28.1519 62.2843 28.824 62.4235 29.5043 62.4345Z" fill="white"/>
<path d="M44.7161 70.4902C43.8883 69.2072 43.2916 68.3028 42.926 67.7768C42.5605 67.2509 42.143 66.7132 41.6737 66.1637C41.202 65.6118 40.3884 64.6873 39.2327 63.3902C39.2327 64.2038 39.2599 65.2003 39.3141 66.3795C39.3683 67.5587 39.445 68.9289 39.544 70.4902H36.438C36.5323 68.8888 36.6078 67.4879 36.6644 66.2875C36.721 65.0871 36.7493 64.0729 36.7493 63.2451C36.7493 62.4173 36.721 61.4032 36.6644 60.2027C36.6113 58.9999 36.5335 57.6026 36.438 56H39.544C39.3483 59.4221 39.2445 61.672 39.2327 62.7498L46.3717 56H46.9943L40.9803 61.8584C42.5133 63.955 43.5746 65.3701 44.1642 66.1035C44.7538 66.837 45.979 68.2969 47.8398 70.4831L44.7161 70.4902Z" fill="white"/>
<path d="M23.791 77.067C23.7344 78.2662 23.7096 79.278 23.7096 80.1094C23.7096 80.9407 23.7344 81.9489 23.791 83.1517C23.8476 84.3545 23.9219 85.7519 24.0174 87.3509H20.9149C21.0104 85.8085 21.0882 84.4465 21.1413 83.2756C21.1944 82.1046 21.2262 81.114 21.2262 80.3145H14.8089C14.8089 81.114 14.836 82.1011 14.8903 83.2756C14.9469 84.4465 15.0212 85.8085 15.1202 87.3509H12.0142C12.1109 85.7519 12.1863 84.3522 12.2406 83.1517C12.2972 81.9489 12.3255 80.9372 12.3255 80.1094C12.3255 79.2816 12.2972 78.2662 12.2406 77.067C12.184 75.8677 12.1097 74.4633 12.0142 72.8643H15.1202L15.099 73.2994C15.0707 73.7145 15.0188 74.6578 14.9433 76.1295C14.869 77.5941 14.8231 78.7863 14.8089 79.7132H21.2262C21.2262 78.7863 21.1661 77.5906 21.0918 76.1295C21.0175 74.6685 20.9609 73.731 20.9361 73.2994L20.9149 72.8643H24.0174C23.9231 74.4633 23.8476 75.8642 23.791 77.067Z" fill="white"/>
<path d="M33.6643 76.9397C34.5442 77.3508 35.2827 78.013 35.7869 78.8429C36.3356 79.853 36.6271 80.9826 36.6358 82.1321C36.6444 83.2815 36.3699 84.4154 35.8365 85.4336C35.3484 86.2583 34.6287 86.9213 33.7669 87.3404C32.9163 87.7472 31.9891 87.969 31.0465 87.9913C30.0473 87.9757 29.063 87.7466 28.1598 87.3192C27.2791 86.8992 26.5411 86.2301 26.0372 85.3947C25.4818 84.4277 25.2062 83.3254 25.2412 82.2108C25.1936 81.042 25.4954 79.8855 26.1079 78.8889C26.6437 78.0518 27.4087 77.3863 28.3119 76.9715C29.1654 76.5803 30.0973 76.3902 31.0359 76.4161C31.9409 76.3824 32.8413 76.5618 33.6643 76.9397ZM29.214 77.6472C28.7635 78.1519 28.4718 78.7783 28.3756 79.4479C28.2158 80.4194 28.1435 81.4033 28.1598 82.3877C28.1428 83.2821 28.2079 84.1761 28.3543 85.0586C28.4536 85.6731 28.7431 86.241 29.1821 86.6824C29.7037 87.1285 30.3709 87.3677 31.0571 87.3545C31.7163 87.3825 32.3599 87.1485 32.8471 86.7036C33.2566 86.2601 33.5176 85.6999 33.5936 85.1011C33.7099 84.2015 33.7608 83.2946 33.7457 82.3877C33.7651 81.3436 33.7072 80.2995 33.5724 79.2639C33.5025 78.6372 33.2334 78.0495 32.8047 77.5871C32.3011 77.1624 31.6501 76.9538 30.9934 77.0069C30.6687 76.9854 30.343 77.0311 30.0368 77.1413C29.7306 77.2515 29.4505 77.4237 29.214 77.6472Z" fill="white"/>
<path d="M48.2575 87.3723C48.4253 87.3649 48.5884 87.315 48.7316 87.2272C48.8989 87.1406 49.0587 87.04 49.2091 86.9265L49.478 86.732V87.1459C49.478 87.1742 49.3931 87.2555 49.2198 87.3935C48.9981 87.5584 48.7538 87.6907 48.4946 87.7862C48.1477 87.917 47.7791 87.9806 47.4085 87.9737C47.0984 87.9988 46.7863 87.9614 46.491 87.8635C46.1956 87.7657 45.9229 87.6095 45.6892 87.4041C45.5137 87.237 45.3737 87.0362 45.2777 86.8137C45.1816 86.5912 45.1315 86.3517 45.1302 86.1093V86.0492C44.7746 86.6138 44.2895 87.0856 43.7152 87.4253C43.0113 87.8165 42.2133 88.0062 41.4086 87.9737C40.6839 88.0263 39.9645 87.8166 39.3816 87.3829C38.924 86.9887 38.6104 86.4536 38.4901 85.8617C38.3393 85.0988 38.2706 84.322 38.2849 83.5445L38.3061 81.9703C38.3061 81.1708 38.2743 80.3878 38.2106 79.6213C38.1504 78.8572 38.0868 78.2062 38.0266 77.7286C37.9665 77.251 37.917 76.9221 37.8887 76.7947H41.2034C41.1385 77.011 41.0993 77.2343 41.0867 77.4598C41.0124 77.9833 40.9417 78.7227 40.8815 79.6743C40.8214 80.626 40.7895 81.7969 40.7895 83.212C40.7772 84.0105 40.8114 84.809 40.8921 85.6034C40.9255 86.0676 41.0818 86.5145 41.345 86.8982C41.4792 87.0557 41.649 87.1789 41.8403 87.2577C42.0316 87.3364 42.239 87.3684 42.4452 87.351C42.7651 87.3511 43.0812 87.2807 43.371 87.145C43.6608 87.0093 43.9172 86.8115 44.122 86.5657C44.5957 86.031 44.9792 85.4228 45.2576 84.765C45.3142 84.2415 45.3425 83.8629 45.3425 83.6259C45.3425 82.0953 45.3106 80.8229 45.247 79.8088C45.1868 78.7935 45.1161 78.0152 45.0418 77.4704C44.9675 76.9256 44.9286 76.6992 44.9286 76.7947H48.2398C48.2398 76.6992 48.2009 76.9256 48.1266 77.4704C48.0523 78.0152 47.9816 78.7935 47.9179 79.8088C47.8542 80.8241 47.8259 82.0941 47.8259 83.6259V86.732C47.8224 87.16 47.9674 87.3723 48.2575 87.3723Z" fill="white"/>
<path d="M57.3313 76.702C57.8589 76.8771 58.3637 77.1146 58.8348 77.4095C59.0438 77.5267 59.2375 77.6693 59.4115 77.834C59.3596 77.9732 59.2417 78.2597 59.0577 78.6937C58.8711 79.1282 58.6499 79.547 58.3962 79.946C58.1379 80.3458 57.9009 80.5439 57.6886 80.5439C57.609 80.5381 57.5328 80.5088 57.4698 80.4596C57.4069 80.4105 57.3599 80.3438 57.3349 80.2679C57.2037 79.969 57.0961 79.6603 57.0129 79.3446C56.8962 78.9096 56.7472 78.4839 56.5672 78.0711C56.4055 77.7199 56.163 77.412 55.8597 77.1725C55.5162 76.9109 55.0917 76.7782 54.6604 76.7975C54.4374 76.7748 54.2121 76.8021 54.0009 76.8772C53.7898 76.9524 53.598 77.0737 53.4395 77.2322C53.281 77.3907 53.1597 77.5825 53.0845 77.7937C53.0093 78.0048 52.9821 78.2301 53.0048 78.4531C52.9836 78.9203 53.1304 79.3796 53.4187 79.7479C53.6943 80.0877 54.044 80.36 54.4411 80.5439C54.9766 80.7899 55.5258 81.0049 56.0861 81.1877C56.6831 81.3755 57.2679 81.5999 57.8372 81.8599C58.278 82.0678 58.6643 82.3754 58.9657 82.7584C59.281 83.1906 59.4407 83.7168 59.4186 84.2513C59.4217 84.9055 59.2389 85.5472 58.8914 86.1015C58.5449 86.6716 58.0576 87.1431 57.4764 87.4706C56.8721 87.8077 56.1907 87.982 55.4988 87.9765C54.794 87.9647 54.0941 87.8564 53.4187 87.6545C52.6978 87.4609 51.989 87.2247 51.2961 86.947C50.6487 86.6852 50.3232 86.5473 50.3232 86.5331C50.4043 86.2485 50.5012 85.9686 50.6133 85.6947C50.7877 85.217 51.0056 84.7563 51.2642 84.3185C51.5048 83.9188 51.7454 83.7596 51.9718 83.8445C52.1267 83.9089 52.2595 84.0171 52.3539 84.1558C52.5512 84.4145 52.7343 84.6837 52.9022 84.9624C53.3366 85.6496 53.8443 86.2878 54.4163 86.8656C54.6366 87.0915 54.9003 87.2706 55.1914 87.3921C55.4826 87.5137 55.7953 87.5753 56.1108 87.5732C56.3352 87.5792 56.5582 87.5362 56.7641 87.4469C56.97 87.3577 57.154 87.2245 57.303 87.0567C57.5959 86.7492 57.7615 86.3422 57.7665 85.9176C57.7647 85.6673 57.6988 85.4217 57.5749 85.2043C57.451 84.9869 57.2733 84.8049 57.0589 84.6758C56.352 84.231 55.6032 83.8566 54.8231 83.558C54.0779 83.2396 53.467 82.9565 52.9906 82.7089C52.5331 82.4756 52.1171 82.1684 51.7595 81.7997C51.4221 81.4588 51.2101 81.0136 51.1581 80.5368L51.1369 80.2467C51.1477 79.6716 51.2753 79.1047 51.5119 78.5805C51.7913 77.9564 52.2429 77.425 52.8137 77.0487C53.5525 76.582 54.4173 76.3547 55.2901 76.3977C55.9827 76.3855 56.6724 76.4883 57.3313 76.702Z" fill="white"/>
<path d="M68.4041 80.9259L64.0705 83.6605C64.4026 84.6441 64.9883 85.5227 65.7686 86.2076C66.4057 86.7996 67.2375 87.1381 68.107 87.1592C68.4968 87.1652 68.8867 87.1475 69.2744 87.1062C69.561 87.0674 69.838 86.9762 70.0916 86.8373C70.4288 86.6474 70.7364 86.409 71.0043 86.1298L71.2095 86.3385C70.9772 86.5717 70.7327 86.7925 70.4772 87C70.0553 87.2804 69.5938 87.4963 69.1081 87.6403C68.3166 87.8954 67.4878 88.015 66.6565 87.9941C65.5042 88.0408 64.3595 87.7873 63.3347 87.2583C62.519 86.8179 61.8611 86.134 61.4527 85.302C61.0518 84.463 60.8497 83.543 60.8618 82.6133C60.8563 81.5732 61.0785 80.5444 61.5128 79.5993C61.9484 78.6542 62.6457 77.8537 63.5222 77.2927C64.5239 76.672 65.6875 76.363 66.8653 76.4048C67.788 76.3638 68.706 76.5586 69.5326 76.9708C70.1041 77.2597 70.5915 77.691 70.9477 78.2231C71.2166 78.6795 71.3015 78.9696 71.2059 79.0934C70.3047 79.7528 69.3694 80.3644 68.4041 80.9259ZM67.8487 77.4979C67.5374 77.0309 67.0032 76.7904 66.2426 76.7904C65.878 76.792 65.5185 76.8758 65.1908 77.0357C64.8631 77.1956 64.5757 77.4273 64.35 77.7137C63.817 78.3245 63.5505 79.328 63.5505 80.7242C63.5486 81.545 63.6678 82.3615 63.9042 83.1475C64.9684 82.6021 65.9767 81.954 66.9148 81.2124C67.8487 80.4731 68.3121 79.716 68.3121 78.9448C68.3043 78.4273 68.143 77.9237 67.8487 77.4979Z" fill="white"/>
</svg>
