<svg width="24" height="22" viewBox="0 0 24 22" fill="none" xmlns="http://www.w3.org/2000/svg">
<path d="M3.46687 0.21875C1.817 0.21875 0.738281 1.30214 0.738281 2.7261C0.738281 4.11862 1.78487 5.23291 3.40356 5.23291H3.43488C5.11702 5.23291 6.16388 4.11862 6.16388 2.7261C6.13243 1.30214 5.11702 0.21875 3.46687 0.21875Z" fill="black"/>
<path d="M1.02344 7.21387H5.84671V21.7249H1.02344V7.21387Z" fill="black"/>
<path d="M17.6855 6.87305C15.0836 6.87305 13.3388 9.31806 13.3388 9.31806V7.21362H8.51538V21.7246H13.3385V13.6211C13.3385 13.1873 13.37 12.7542 13.4974 12.4439C13.8461 11.5777 14.6396 10.6802 15.9721 10.6802C17.7174 10.6802 18.4154 12.0109 18.4154 13.9617V21.7246H23.2383V13.4043C23.2383 8.94713 20.8587 6.87305 17.6855 6.87305Z" fill="black"/>
</svg>
